<?xml version="1.0" encoding="utf-8"?>
<!-- Generator: Adobe Illustrator 21.1.0, SVG Export Plug-In . SVG Version: 6.00 Build 0)  -->
<svg version="1.1" id="Calque_1" xmlns="http://www.w3.org/2000/svg" xmlns:xlink="http://www.w3.org/1999/xlink" x="0px" y="0px"
	 viewBox="0 0 64 64" style="enable-background:new 0 0 64 64;" xml:space="preserve">
<path d="M54.4,38c-0.6-0.6-1.5-0.8-2.2-0.4c-2.4,1-4.9,1.5-7.5,1.5c-10.9,0-19.7-8.9-19.7-19.7c0-2.6,0.5-5.1,1.5-7.5
	c0.3-0.8,0.1-1.6-0.4-2.2c-0.6-0.6-1.5-0.8-2.2-0.4C14.8,12.9,9,21.5,9,31.2C9,44.3,19.7,55,32.8,55c9.7,0,18.3-5.8,22-14.7
	C55.2,39.5,55,38.6,54.4,38z M44.7,43.2c1.4,0,2.8-0.1,4.1-0.4c-3.7,5-9.6,8.1-16,8.1c-10.9,0-19.7-8.9-19.7-19.7
	c0-6.3,3.1-12.3,8.1-16c-0.2,1.4-0.4,2.7-0.4,4.1C20.8,32.5,31.5,43.2,44.7,43.2z"/>
</svg>
